#!OML:ASF E:\id_vita\Project 1\Capture day 1\Session 1\Male1.ASF
:FULLY-SPECIFIED
:DEGREES
1244
root 17.3935 22.5408 -0.0233191 199.265 86.9371 197.641
lowerback 4.64788 -0.741964 -2.50703
upperback 3.95153 -0.977145 0.122805
thorax 1.50424 -0.507369 1.56321
lowerneck -15.9081 -2.36899 -2.15146
upperneck 36.0324 -2.77641 3.18925
head 15.3886 -0.604435 1.35822
rclavicle -1.39149e-015 -3.97569e-016
rhumerus -20.5038 -15.8268 4.5831
rradius 61.7078
rwrist -8.77187
rhand -29.4161 43.98
rfingers 7.12502
rthumb -2.75358 14.018
lclavicle -1.39149e-015 -3.97569e-016
lhumerus -19.4073 19.8663 -11.1871
lradius 43.4248
lwrist 10.6659
lhand -14.7911 34.715
lfingers 7.12502
lthumb 11.3663 64.387
rfemur -26.5729 0.562048 19.394
rtibia 31.5555
rfoot 2.46472 4.87402
rtoes -2.64688
lfemur -21.366 1.39882 -16.4525
ltibia 27.2625
lfoot 9.18225 2.78829
ltoes 1.68528
1245
root 17.6007 22.1528 -0.0527641 195.686 86.7379 194.167
lowerback 4.32973 -0.811438 -2.51639
upperback 4.06992 -1.05865 0.204202
thorax 1.80967 -0.553706 1.64857
lowerneck -16.231 -2.29301 -2.3339
upperneck 35.6882 -2.62293 3.15184
head 15.2941 -0.583869 1.39021
rclavicle 6.85807e-015 -3.97569e-016
rhumerus -19.5737 -16.8116 5.45986
rradius 61.1981
rwrist -8.95664
rhand -29.1815 43.8054
rfingers 7.12502
rthumb -2.52699 13.8406
lclavicle 6.85807e-015 -3.97569e-016
lhumerus -19.7402 19.7484 -12.609
lradius 43.1095
lwrist 10.3747
lhand -15.1639 33.562
lfingers 7.12502
lthumb 11.0067 63.2535
rfemur -26.3216 0.232177 19.1051
rtibia 31.3578
rfoot 3.62384 5.39678
rtoes -1.84735
lfemur -21.4202 0.866847 -16.5652
ltibia 27.0591
lfoot 9.28726 2.42159
ltoes -0.230777
1246
root 17.8018 21.751 -0.0836572 197.62 86.4807 196.287
lowerback 4.12031 -0.802569 -2.11126
upperback 4.06622 -1.03568 0.410235
thorax 1.91676 -0.537426 1.62957
lowerneck -16.8596 -2.44889 -2.84736
upperneck 36.0622 -2.67698 3.1633
head 15.6397 -0.666403 1.484
rclavicle 1.97294e-014 -3.97569e-015
rhumerus -19.1701 -17.0054 6.60594
rradius 61.3299
rwrist -9.88047
rhand -29.3466 42.7833
rfingers 7.12502
rthumb -2.68649 12.8205
lclavicle 1.97294e-014 -3.97569e-015
lhumerus -18.8258 19.7378 -13.2097
lradius 41.9425
lwrist 9.02925
lhand -16.933 38.047
lfingers 7.12502
lthumb 9.29998 67.8219
rfemur -26.0405 0.104686 19.1382
rtibia 31.2029
rfoot 4.61213 6.32837
rtoes -5.10885
lfemur -21.4263 0.731703 -16.3747
ltibia 26.9434
lfoot 10.0203 2.06684
ltoes 0.726858
1247
root 17.9983 21.334 -0.106614 198.76 86.2318 197.625
lowerback 3.98248 -0.879985 -1.94274
upperback 4.26435 -1.12754 0.655571
thorax 2.20433 -0.584916 1.78548
lowerneck -17.6355 -2.39934 -3.10759
upperneck 35.8924 -2.48072 3.00111
head 15.7347 -0.654977 1.48688
rclavicle 1.37161e-014 2.48481e-015
rhumerus -18.5401 -17.7233 7.26025
rradius 61.3168
rwrist -11.2986
rhand -34.3322 43.2855
rfingers 7.12502
rthumb -7.50021 13.4385
lclavicle 1.37161e-014 2.48481e-015
lhumerus -19.2686 18.6215 -14.2787
lradius 41.7984
lwrist 8.69026
lhand -17.8623 37.597
lfingers 7.12502
lthumb 8.40325 67.4098
rfemur -25.7339 0.249952 19.1131
rtibia 31.1274
rfoot 5.21856 7.24289
rtoes -9.68077
lfemur -21.4592 1.00905 -16.2713
ltibia 26.9571
lfoot 11.0517 1.50303
ltoes 1.42849
1248
root 18.1916 20.9123 -0.121707 194.558 86.0099 193.529
lowerback 3.81279 -0.946812 -2.27281
upperback 4.4563 -1.21537 0.838108
thorax 2.51522 -0.643821 2.1555
lowerneck -18.2272 -2.31933 -3.24661
upperneck 35.4179 -2.24509 2.70907
head 15.6293 -0.636097 1.41325
rclavicle -8.34896e-015 -6.65929e-015
rhumerus -18.3245 -18.9429 7.95396
rradius 61.5447
rwrist -11.493
rhand -34.0432 44.4754
rfingers 7.12502
rthumb -7.22129 14.6186
lclavicle -8.34896e-015 -6.65929e-015
lhumerus -19.7755 16.7788 -15.1858
lradius 41.988
lwrist 8.78448
lhand -18.3245 37.7274
lfingers 7.12502
lthumb 7.95712 67.5576
rfemur -25.5884 0.319593 18.7183
rtibia 31.164
rfoot 6.83235 6.69691
rtoes -7.32727
lfemur -21.612 1.5757 -16.6321
ltibia 27.1676
lfoot 11.8704 0.720987
ltoes 2.1787
